<?xml version="1.0" encoding="UTF-8"?>
<svg id="Tree" xmlns="http://www.w3.org/2000/svg" viewBox="0 0 200 200">
  <defs>
    <style>
      .cls-1 {
        stroke: #d95027;
      }

      .cls-1, .cls-2 {
        fill: none;
        stroke-miterlimit: 10;
        stroke-width: 20.48px;
      }

      .cls-2 {
        stroke: #db7427;
      }

      .cls-3 {
        fill: #db7427;
      }

      .cls-4 {
        fill: #db2d26;
      }

      .cls-5 {
        fill: #492a1a;
      }
    </style>
  </defs>
  <g>
    <path class="cls-2" d="M10.35,129.94V37.71c0-15.19,12.4-27.51,27.7-27.51h123.75c15.3,0,27.7,12.32,27.7,27.51v92.23"/>
    <path class="cls-1" d="M10.35,70.06v92.23c0,15.19,12.4,27.51,27.7,27.51h123.75c15.3,0,27.7-12.32,27.7-27.51v-92.23"/>
    <polygon class="cls-3" points=".11 70.05 20.59 121.72 20.59 52.86 .11 70.05"/>
    <polygon class="cls-3" points="199.75 70.06 179.28 121.74 179.28 52.86 199.75 70.06"/>
  </g>
  <path class="cls-4" d="M136.78,76.49c.04.18-2.65,17.49-8.51,14.03,3.42-8.01-12.94-28.56-20.02-33.54-8.55-6.06-6.76-23.01-5.62-26.18,0-.14-18.56,3.61-20.19,24.52-1.63,20.92-.65,20.77-7.98,26.4-.49-6.35-11.88-10.39-13.19-10.53.16.58,2.93,7.65-2.93,17.45-5.86,9.81-9.44,41.04,24.91,52.54,0-.02-3.17-1.71-6.03-5.55h-4.81s2.16-4.63,2.16-4.63c-1.63-3.87-2.49-8.95-1.21-15.44.2-1,.53-1.98.97-2.92,3.81-8.13,2.09-11.75,2.09-11.75,0,0,4.4.43,5.54,2.74,1.21-3.02,2.85-6.56,4.97-10.1h-2.94l14.49-29.43,15.3,29.37h-3.31l1.47,2.76c4.78,2.77,7.21,10.78,8.45,13.6,0,.14,1.79-2.31,1.79-5.63,6.19,6.06,4.4,22.79,3.58,24.52-.27.57-.79,1.76-1.57,3.21l1.72,3.64h-4c-1.56,2.14-3.58,4.26-6.11,5.59,0,0,47.09-8.84,21-64.7Z"/>
  <g>
    <rect class="cls-5" x="93.1" y="137.16" width="12.81" height="31.81"/>
    <polygon class="cls-5" points="73.88 134.92 124.48 134.92 115.83 116.67 121.28 116.67 108.75 92.49 111.83 92.49 98.54 66.87 85.94 92.49 88.99 92.49 76.76 116.83 82.31 116.83 73.88 134.92"/>
  </g>
</svg>