<?xml version="1.0" encoding="UTF-8"?>
<svg id="Rain" xmlns="http://www.w3.org/2000/svg" viewBox="0 0 200 200">
  <defs>
    <style>
      .cls-1 {
        stroke: #dad0e7;
      }

      .cls-1, .cls-2 {
        fill: none;
        stroke-width: 20.47px;
      }

      .cls-1, .cls-2, .cls-3 {
        stroke-miterlimit: 10;
      }

      .cls-4 {
        fill: #b2b1d9;
      }

      .cls-2 {
        stroke: #b2b1d8;
      }

      .cls-3 {
        fill: #b1e2f4;
        stroke: #d4e1f3;
        stroke-linecap: round;
        stroke-width: 2.56px;
      }

      .cls-5 {
        fill: #b1c4e6;
      }
    </style>
  </defs>
  <g>
    <path class="cls-2" d="M10.24,129.93V37.72c0-15.19,12.4-27.51,27.7-27.51h123.73c15.3,0,27.7,12.32,27.7,27.51v92.21"/>
    <path class="cls-1" d="M10.24,70.07v92.21c0,15.19,12.4,27.51,27.7,27.51h123.73c15.3,0,27.7-12.32,27.7-27.51v-92.21"/>
    <polygon class="cls-4" points="0 70.06 20.48 121.72 20.48 63.16 0 70.06"/>
    <polygon class="cls-4" points="199.6 70.07 179.14 121.74 179.14 61.21 199.6 70.07"/>
  </g>
  <path class="cls-5" d="M20.75,124.4c4.51,4.51,52.92,8.37,148.77,2.7,20.05-1.64,24.16-18.35,14.58-32.94-5.76-9.11-18.09-11.88-18.09-11.88,0,0-1.35-30.51-40.5-25.38-4.59-27-50.49-33.75-58.86.81-22.95,1.42-28.35,15.01-27.81,23.91-15.23,1-43.47,27.26-18.09,42.78Z"/>
  <line class="cls-3" x1="150.41" y1="131.38" x2="158.33" y2="144.36"/>
  <line class="cls-3" x1="142.48" y1="152.68" x2="150.41" y2="165.66"/>
  <line class="cls-3" x1="84.57" y1="155.9" x2="92.49" y2="168.88"/>
  <line class="cls-3" x1="106.53" y1="135.85" x2="114.46" y2="148.83"/>
  <line class="cls-3" x1="58" y1="134.64" x2="65.93" y2="147.62"/>
</svg>