<?xml version="1.0" encoding="UTF-8"?>
<svg id="Cloud" xmlns="http://www.w3.org/2000/svg" viewBox="0 0 200 200">
  <defs>
    <style>
      .cls-1, .cls-2, .cls-3, .cls-4, .cls-5, .cls-6, .cls-7, .cls-8 {
        stroke-miterlimit: 10;
      }

      .cls-1, .cls-2, .cls-4, .cls-5, .cls-7, .cls-8 {
        stroke: #d1e8f3;
        stroke-linecap: round;
      }

      .cls-1, .cls-3, .cls-4, .cls-5, .cls-6 {
        fill: none;
      }

      .cls-1, .cls-7 {
        stroke-width: 1.92px;
      }

      .cls-9 {
        fill: #d2e8f4;
      }

      .cls-2, .cls-4 {
        stroke-width: 1.28px;
      }

      .cls-2, .cls-7, .cls-8 {
        fill: #d1e8f3;
      }

      .cls-3 {
        stroke: #b7ceeb;
      }

      .cls-3, .cls-6 {
        stroke-width: 20.48px;
      }

      .cls-5, .cls-8 {
        stroke-width: .96px;
      }

      .cls-10 {
        fill: #dfe2f2;
      }

      .cls-6 {
        stroke: #dfe2f2;
      }
    </style>
  </defs>
  <g>
    <path class="cls-6" d="M10.24,129.94V37.69c0-15.2,12.41-27.52,27.71-27.52h123.78c15.3,0,27.71,12.32,27.71,27.52v92.25"/>
    <path class="cls-3" d="M10.24,70.06v92.25c0,15.2,12.41,27.52,27.71,27.52h123.78c15.3,0,27.71-12.32,27.71-27.52v-92.25"/>
    <polygon class="cls-10" points="0 70.04 20.48 121.73 20.48 58.43 0 70.04"/>
    <polygon class="cls-10" points="199.68 70.05 179.21 121.75 179.21 58.43 199.68 70.05"/>
  </g>
  <g>
    <polygon class="cls-7" points="153.46 165.63 153.46 161.55 149.93 159.52 146.41 161.55 146.41 165.63 149.93 167.66 153.46 165.63"/>
    <polyline class="cls-1" points="147.68 151.02 149.95 154.13 152.09 151.02"/>
    <line class="cls-1" x1="149.95" y1="160.59" x2="149.95" y2="150.05"/>
    <polyline class="cls-1" points="146.07 154.81 149.94 159.57 153.58 154.81"/>
    <polyline class="cls-1" points="147.68 176.25 149.95 173.14 152.09 176.25"/>
    <line class="cls-1" x1="149.95" y1="166.67" x2="149.95" y2="177.22"/>
    <polyline class="cls-1" points="146.07 172.46 149.94 167.7 153.58 172.46"/>
    <polyline class="cls-1" points="159.61 155.16 158.11 158.7 161.87 158.94"/>
    <line class="cls-1" x1="152.55" y1="162.02" x2="161.61" y2="156.61"/>
    <polyline class="cls-1" points="155.53 155.72 153.43 161.49 159.39 162.17"/>
    <polyline class="cls-1" points="140.21 155.32 141.71 158.86 137.95 159.1"/>
    <line class="cls-1" x1="147.26" y1="162.18" x2="138.21" y2="156.76"/>
    <polyline class="cls-1" points="144.29 155.88 146.38 161.65 140.43 162.33"/>
    <polyline class="cls-1" points="162.07 167.83 158.24 168.24 159.87 171.65"/>
    <line class="cls-1" x1="152.65" y1="165.01" x2="161.78" y2="170.28"/>
    <polyline class="cls-1" points="159.6 164.54 153.53 165.52 155.84 171.05"/>
    <polyline class="cls-1" points="137.75 167.83 141.57 168.24 139.95 171.65"/>
    <line class="cls-1" x1="147.17" y1="165.01" x2="138.04" y2="170.28"/>
    <polyline class="cls-1" points="140.22 164.54 146.28 165.52 143.98 171.05"/>
  </g>
  <g>
    <polygon class="cls-2" points="125.31 138.06 125.31 135.06 122.71 133.56 120.12 135.06 120.12 138.06 122.71 139.56 125.31 138.06"/>
    <polyline class="cls-4" points="121.06 127.3 122.73 129.59 124.3 127.3"/>
    <line class="cls-4" x1="122.72" y1="134.35" x2="122.72" y2="126.59"/>
    <polyline class="cls-4" points="119.86 130.09 122.72 133.6 125.4 130.09"/>
    <polyline class="cls-4" points="121.06 145.88 122.73 143.59 124.3 145.88"/>
    <line class="cls-4" x1="122.72" y1="138.83" x2="122.72" y2="146.6"/>
    <polyline class="cls-4" points="119.86 143.09 122.72 139.59 125.4 143.09"/>
    <polyline class="cls-4" points="129.84 130.36 128.73 132.96 131.5 133.14"/>
    <line class="cls-4" x1="124.64" y1="135.41" x2="131.31" y2="131.42"/>
    <polyline class="cls-4" points="126.83 130.77 125.29 135.02 129.67 135.52"/>
    <polyline class="cls-4" points="115.55 130.47 116.66 133.08 113.89 133.26"/>
    <line class="cls-4" x1="120.74" y1="135.52" x2="114.08" y2="131.53"/>
    <polyline class="cls-4" points="118.56 130.88 120.1 135.13 115.72 135.63"/>
    <polyline class="cls-4" points="131.65 139.68 128.83 139.99 130.03 142.49"/>
    <line class="cls-4" x1="124.71" y1="137.6" x2="131.43" y2="141.49"/>
    <polyline class="cls-4" points="129.83 137.26 125.36 137.98 127.06 142.05"/>
    <polyline class="cls-4" points="113.74 139.68 116.56 139.99 115.36 142.49"/>
    <line class="cls-4" x1="120.68" y1="137.6" x2="113.95" y2="141.49"/>
    <polyline class="cls-4" points="115.56 137.26 120.02 137.98 118.33 142.05"/>
  </g>
  <g>
    <polygon class="cls-8" points="59.23 142.24 59.23 139.88 57.18 138.7 55.14 139.88 55.14 142.24 57.18 143.43 59.23 142.24"/>
    <polyline class="cls-5" points="55.88 133.77 57.19 135.58 58.43 133.77"/>
    <line class="cls-5" x1="57.19" y1="139.33" x2="57.19" y2="133.21"/>
    <polyline class="cls-5" points="54.94 135.97 57.19 138.73 59.3 135.97"/>
    <polyline class="cls-5" points="55.88 148.41 57.19 146.6 58.43 148.41"/>
    <line class="cls-5" x1="57.19" y1="142.85" x2="57.19" y2="148.97"/>
    <polyline class="cls-5" points="54.94 146.21 57.19 143.45 59.3 146.21"/>
    <polyline class="cls-5" points="62.8 136.18 61.92 138.23 64.11 138.37"/>
    <line class="cls-5" x1="58.7" y1="140.15" x2="63.95" y2="137.01"/>
    <polyline class="cls-5" points="60.43 136.5 59.21 139.85 62.67 140.24"/>
    <polyline class="cls-5" points="51.54 136.27 52.41 138.32 50.23 138.46"/>
    <line class="cls-5" x1="55.63" y1="140.24" x2="50.38" y2="137.11"/>
    <polyline class="cls-5" points="53.91 136.59 55.13 139.94 51.67 140.33"/>
    <polyline class="cls-5" points="64.22 143.52 62 143.76 62.95 145.74"/>
    <line class="cls-5" x1="58.76" y1="141.89" x2="64.05" y2="144.94"/>
    <polyline class="cls-5" points="62.79 141.61 59.27 142.18 60.61 145.39"/>
    <polyline class="cls-5" points="50.12 143.52 52.33 143.76 51.39 145.74"/>
    <line class="cls-5" x1="55.58" y1="141.89" x2="50.28" y2="144.94"/>
    <polyline class="cls-5" points="51.55 141.61 55.07 142.18 53.73 145.39"/>
  </g>
  <path class="cls-9" d="M20.75,125.57c4.51,4.51,52.94,8.37,148.83,2.7,20.06-1.64,24.17-18.36,14.59-32.95-5.76-9.12-18.1-11.88-18.1-11.88,0,0-1.35-30.52-40.52-25.39-4.59-27.01-50.51-33.76-58.88.81-22.96,1.42-28.36,15.01-27.82,23.92-15.24,1-43.49,27.27-18.1,42.8Z"/>
</svg>