<?xml version="1.0" encoding="UTF-8"?>
<svg id="Rain" xmlns="http://www.w3.org/2000/svg" viewBox="0 0 200 200">
  <defs>
    <style>
      .cls-1 {
        stroke: #c8e9eb;
      }

      .cls-1, .cls-2, .cls-3 {
        stroke-miterlimit: 10;
      }

      .cls-1, .cls-3 {
        fill: none;
        stroke-width: 20.49px;
      }

      .cls-4 {
        fill: #fef9c6;
      }

      .cls-2 {
        fill: #b1e2f4;
        stroke: #d4e1f3;
        stroke-linecap: round;
        stroke-width: 2.56px;
      }

      .cls-5 {
        fill: #b0cdec;
      }

      .cls-6 {
        fill: #a6a9d5;
      }

      .cls-3 {
        stroke: #b0cdec;
      }
    </style>
  </defs>
  <g>
    <path class="cls-3" d="M10.25,129.96V37.65c0-15.21,12.41-27.53,27.73-27.53h123.85c15.31,0,27.73,12.33,27.73,27.53v92.31"/>
    <path class="cls-1" d="M10.25,70.04v92.31c0,15.21,12.41,27.53,27.73,27.53h123.85c15.31,0,27.73-12.33,27.73-27.53v-92.31"/>
    <polygon class="cls-5" points="0 70.03 20.5 121.74 20.5 63.12 0 70.03"/>
    <polygon class="cls-5" points="199.8 70.04 179.32 121.76 179.32 61.17 199.8 70.04"/>
  </g>
  <path class="cls-4" d="M58.31,115.85h19.21c.64,0,1.05.68.76,1.24l-11.49,22.49c-.29.57.12,1.24.76,1.24h9.24c.66,0,1.07.72.74,1.29l-20.16,33.98c-.15.25-.41.41-.69.42-.54.03-1.32-.14-1.32-1.37.08-.58,5.64-19.89,7.04-24.73.16-.55-.25-1.09-.82-1.09h-12.09c-.57,0-.98-.54-.82-1.08l8.83-31.78c.1-.37.44-.63.82-.63Z"/>
  <path class="cls-6" d="M184.28,94.15c-5.77-9.12-18.11-11.89-18.11-11.89,0,0-1.35-30.54-40.54-25.41-4.59-27.03-50.54-33.78-58.92.81-22.97,1.42-28.38,15.02-27.84,23.93-15.25,1-43.51,27.28-18.11,42.83,1.83,1.83,14,3.72,30.57,4.74l2.93-9.82c1.37-4.67.67-5.46,4.24-5.67h20.71c2.35-.07,2.56,1.31,1.04,4.54l-5.61,11.47c23.4.21,56.73-.29,95.06-2.55,20.07-1.65,24.18-18.37,14.59-32.97Z"/>
  <line class="cls-2" x1="87.77" y1="136.19" x2="92.48" y2="150.14"/>
  <line class="cls-2" x1="125.72" y1="135.03" x2="130.44" y2="148.98"/>
  <line class="cls-2" x1="161.4" y1="132.25" x2="166.11" y2="146.2"/>
  <line class="cls-2" x1="149.83" y1="146.2" x2="154.54" y2="160.14"/>
  <line class="cls-2" x1="110.07" y1="151.93" x2="114.78" y2="165.88"/>
</svg>