<?xml version="1.0" encoding="UTF-8"?>
<svg id="Box" xmlns="http://www.w3.org/2000/svg" viewBox="0 0 200 200">
  <defs>
    <style>
      .cls-1 {
        fill: #97d8e2;
      }

      .cls-2 {
        stroke: #93a8d6;
      }

      .cls-2, .cls-3, .cls-4 {
        fill: none;
        stroke-miterlimit: 10;
      }

      .cls-2, .cls-4 {
        stroke-width: 20.47px;
      }

      .cls-5 {
        fill: #93a8d7;
      }

      .cls-3 {
        stroke: #98d8e1;
        stroke-width: 3.98px;
      }

      .cls-4 {
        stroke: #b5bfe2;
      }
    </style>
  </defs>
  <path class="cls-3" d="M9.79,138.12s8.33.38,13.92-7.4c1.2,1.73,14.48,17.37,30.09,0,0,0,14.1,17.68,30.09,0,1.46,1.58,14.1,16.47,30.46,0,0,0,15.61,17.52,30.28,0,0,0,13.92,17.37,30.28,0,2.72,2.6,4.13,6.65,14.67,7.86"/>
  <path class="cls-3" d="M9.79,153.4s8.33.38,13.92-7.4c1.2,1.73,14.48,17.37,30.09,0,0,0,14.1,17.68,30.09,0,1.46,1.58,14.1,16.47,30.46,0,0,0,15.61,17.52,30.28,0,0,0,13.92,17.37,30.28,0,2.72,2.6,4.13,6.65,14.67,7.86"/>
  <g>
    <path class="cls-1" d="M125.07,84.35s16.37-13.94,29.37,12.78c-.09-1.09-.63-20.28-14.68-23.87-7.61-1.37-13.94,6.87-14.68,11.09Z"/>
    <g>
      <path class="cls-1" d="M83.88,126.16c.9.98,6.32,8.31,13.98,8.93h2.46c4.22-.31,8.8-3.68,14.02-8.93,0,0,6.1,8.3,14.26,9.15h3.06c3.9-.35,8.11-3.73,12.27-8.39-7.29-3.74-28.71-16.79-24.25-39.43,5.21-23.1,36.34-21.41,38.45,7.18,2.64-2.56,6.65-9.22,2.96-25.91-4.37-19.74-21.34-22.81-33.94-21.62-8.32.78-25.39,6.59-43.45,32.89-18.06,26.3-15,28.2-23.03,37.22-3.4,3.66-9.3,10.47-13.2,13.37-.82.61-1.52,1.38-1.95,2.3-.17.36-.28.71-.28,1.01,2.66-1.25,5.67-4.56,8.55-7.77,0,0,4.87,7.21,12.13,8.66h5.97c3.73-.78,7.79-4.01,11.99-8.66Z"/>
      <path class="cls-1" d="M71.89,134.83c-2.12.41-4.12.35-5.97-.01"/>
      <path class="cls-1" d="M100.32,135.1c-.85.06-1.67.06-2.46,0"/>
      <path class="cls-1" d="M131.66,135.32c-1.04.1-2.07.1-3.06,0"/>
    </g>
  </g>
  <g>
    <path class="cls-2" d="M10.13,129.92V37.73c0-15.19,12.4-27.5,27.69-27.5h123.7c15.29,0,27.69,12.31,27.69,27.5v92.19"/>
    <path class="cls-4" d="M10.13,70.08v92.19c0,15.19,12.4,27.5,27.69,27.5h123.7c15.29,0,27.69-12.31,27.69-27.5v-92.19"/>
    <polygon class="cls-5" points="-.1 70.06 20.37 121.71 20.37 63.17 -.1 70.06"/>
    <polygon class="cls-5" points="199.45 70.07 178.99 121.73 178.99 61.22 199.45 70.07"/>
  </g>
</svg>