<?xml version="1.0" encoding="UTF-8"?>
<svg id="Wind" xmlns="http://www.w3.org/2000/svg" viewBox="0 0 200 200">
  <defs>
    <style>
      .cls-1 {
        stroke: #c5e8ef;
      }

      .cls-1, .cls-2 {
        stroke-width: 20.5px;
      }

      .cls-1, .cls-2, .cls-3 {
        fill: none;
        stroke-miterlimit: 10;
      }

      .cls-2 {
        stroke: #bacce8;
      }

      .cls-4 {
        fill: #bacce8;
      }

      .cls-3 {
        stroke: #d5edef;
        stroke-linecap: round;
        stroke-width: 2.71px;
      }

      .cls-5 {
        fill: #c2e0f6;
      }
    </style>
  </defs>
  <g>
    <path class="cls-2" d="M10.25,129.97V37.62c0-15.21,12.42-27.55,27.74-27.55h123.91c15.32,0,27.74,12.33,27.74,27.55v92.35"/>
    <path class="cls-1" d="M10.25,70.03v92.35c0,15.21,12.42,27.55,27.74,27.55h123.91c15.32,0,27.74-12.33,27.74-27.55v-92.35"/>
    <polygon class="cls-4" points="0 70.01 20.51 121.75 20.51 63.11 0 70.01"/>
    <polygon class="cls-4" points="199.89 70.02 179.4 121.77 179.4 61.15 199.89 70.02"/>
  </g>
  <g>
    <path class="cls-3" d="M91.58,131.92h55.01c7.51,0,9.29.45,12.07,1.92,3.1,1.63,5.33,5.05,5.62,8.41.99,11.66-13.26,13.98-18.33,5.44"/>
    <path class="cls-3" d="M98.5,125.04h48.09c7.51,0,9.29-.45,12.07-1.92,3.1-1.63,5.33-5.05,5.62-8.41.99-11.66-13.26-13.98-18.33-5.44"/>
    <path class="cls-3" d="M91.58,139.32h31.5c1.67,0,3.34.21,4.94.7,3.12.97,7.09,3.23,7.09,8.52,0,8.72-9.88,10.41-13.66,4.05"/>
    <line class="cls-3" x1="96.57" y1="147.88" x2="114.99" y2="147.88"/>
  </g>
  <path class="cls-5" d="M184.37,93.87c-5.77-9.13-18.12-11.9-18.12-11.9,0,0-1.35-30.56-40.56-25.42-4.6-27.04-50.57-33.8-58.95.81-22.98,1.42-28.39,15.03-27.85,23.94-15.26,1-43.53,27.3-18.12,42.85,4.52,4.52,53,8.38,148.99,2.7,20.08-1.65,24.19-18.38,14.6-32.99ZM166.44,118.87c-3.66,9.32-16.8,8.89-16.8,8.89h-51.3s-2.8,0-2.8-2.62c0-3.27,2.46-3.27,2.46-3.27,0,0,47.92.02,50.4,0,10.39.35,11.02-3.96,11.35-4.74.46-1.14,2.93-6.96-2.26-9.29-5.74-2.03-7.81,1.65-9.23,3.36-.51.61-2.62,1.36-3.7.77-1.77-.96-1.36-3.15-1.4-3.15,4.17-10.35,15.13-8.05,17.94-6.65,3.72,1.86,9.01,6.92,5.35,16.72Z"/>
</svg>