<?xml version="1.0" encoding="UTF-8"?>
<svg id="Hurricane" xmlns="http://www.w3.org/2000/svg" viewBox="0 0 200 200">
  <defs>
    <style>
      .cls-1 {
        fill: #8ea2d3;
      }

      .cls-2 {
        fill: #5d74a6;
      }

      .cls-3 {
        stroke: #9c89c0;
      }

      .cls-3, .cls-4, .cls-5 {
        fill: none;
        stroke-miterlimit: 10;
      }

      .cls-3, .cls-5 {
        stroke-width: 20.47px;
      }

      .cls-4 {
        stroke: #5d74a6;
        stroke-width: 7.57px;
      }

      .cls-5 {
        stroke: #7e7cbb;
      }

      .cls-6 {
        fill: #9d89c0;
      }
    </style>
  </defs>
  <g>
    <path class="cls-3" d="M10.31,129.93V37.71c0-15.19,12.4-27.51,27.7-27.51h123.73c15.3,0,27.7,12.32,27.7,27.51v92.22"/>
    <path class="cls-5" d="M10.31,70.07v92.22c0,15.19,12.4,27.51,27.7,27.51h123.73c15.3,0,27.7-12.32,27.7-27.51v-92.22"/>
    <polygon class="cls-6" points=".07 70.05 20.55 121.72 20.55 63.16 .07 70.05"/>
    <polygon class="cls-6" points="199.68 70.06 179.21 121.74 179.21 61.21 199.68 70.06"/>
  </g>
  <path class="cls-2" d="M51.61,113.31s3.45,41.81,43.32,48.49c39.87,6.68,61.85-18.96,66.38-28.02.22-.43-14.92,19.02-49.78,14.65-2.86.32,53.88-4.96,53.66-58.83-.43-35.56-27.37-45.26-31.46-46.12-.22-.22,22.63,18.1,16.16,46.55-.22,0-8.84-43.1-46.98-48.7-38.15-5.6-57.97,18.75-64.44,30.17.22.43,25.86-23.49,52.37-17.46.43.22-39.65,3.3-52.37,37-12.72,33.69,10.99,61.06,27.15,67.53-.22-.22-18.32-17.24-14.01-45.26Z"/>
  <path class="cls-1" d="M109.04,130.57s34.2-3.45,34.05-33.15c-.6-20.71-12.77-31.49-21.3-33.6,2.38,1.54,13.8,9.9,11.25,28.95-.15-.6-1.2-22.5-24-28.2-22.8-5.7-37.95,2.1-46.49,15,1.44-.93,19.95-14.1,31.65-8.55-1.32,0-25.05,1.5-33.75,22.8-8.7,21.3,11.92,42.78,18.45,43.49-2.59-2.23-11.08-11.57-9.45-29.55.13.92,1.65,33.15,35.1,32.85,30-.6,35.43-18.53,36.3-22.05-3.2,2.42-16.49,15-31.8,12Z"/>
  <circle class="cls-4" cx="99.08" cy="101.02" r="21.45"/>
  <circle class="cls-2" cx="99.08" cy="101.02" r="7.39"/>
</svg>