<?xml version="1.0" encoding="UTF-8"?>
<svg id="Stars" xmlns="http://www.w3.org/2000/svg" viewBox="0 0 200 200">
  <defs>
    <style>
      .cls-1, .cls-2 {
        fill: #fff;
      }

      .cls-3 {
        stroke: #5e5ba8;
      }

      .cls-3, .cls-4 {
        stroke-width: 20.48px;
      }

      .cls-3, .cls-4, .cls-2, .cls-5 {
        stroke-miterlimit: 10;
      }

      .cls-3, .cls-4, .cls-5 {
        fill: none;
      }

      .cls-4 {
        stroke: #6a7dbd;
      }

      .cls-6 {
        fill: #1a1d4d;
      }

      .cls-2, .cls-5 {
        stroke: #72cddf;
        stroke-linecap: round;
        stroke-width: 1.28px;
      }

      .cls-7 {
        fill: #6a7cbc;
      }
    </style>
  </defs>
  <rect class="cls-6" x="15.89" y="11.74" width="167.88" height="167.88"/>
  <g>
    <path class="cls-4" d="M10.24,129.75V37.51c0-15.2,12.4-27.51,27.71-27.51h123.76c15.3,0,27.71,12.32,27.71,27.51v92.24"/>
    <path class="cls-3" d="M10.24,69.87v92.24c0,15.2,12.4,27.51,27.71,27.51h123.76c15.3,0,27.71-12.32,27.71-27.51v-92.24"/>
    <polygon class="cls-7" points="0 69.86 20.48 121.53 20.48 60.75 0 69.86"/>
    <polygon class="cls-7" points="199.65 69.87 179.18 121.56 179.18 60.75 199.65 69.87"/>
  </g>
  <path class="cls-1" d="M97.23,43.08s-9.88,16.97,0,31.72c9.88,14.75,27.18,10.9,27.18,10.9,0,0-10.62,15.26-30.84,9.79-21.98-6.12-18.85-30.98-17.07-37.24s9.53-14.33,20.73-15.17Z"/>
  <line class="cls-5" x1="33.08" y1="129.75" x2="166.57" y2="129.75"/>
  <line class="cls-2" x1="40.59" y1="142.18" x2="60.21" y2="142.18"/>
  <line class="cls-2" x1="46.2" y1="155.43" x2="65.83" y2="155.43"/>
  <line class="cls-2" x1="133.83" y1="155.43" x2="153.45" y2="155.43"/>
  <line class="cls-2" x1="84.92" y1="155.43" x2="114.73" y2="155.43"/>
  <line class="cls-2" x1="65.3" y1="142.18" x2="84.92" y2="142.18"/>
  <line class="cls-2" x1="90.01" y1="142.18" x2="109.64" y2="142.18"/>
  <line class="cls-2" x1="114.73" y1="142.18" x2="134.35" y2="142.18"/>
  <line class="cls-2" x1="139.44" y1="142.18" x2="159.07" y2="142.18"/>
  <path class="cls-1" d="M163.65,88.76s.03-9.22,7.05-9.22c.14,0-7.04.24-7.04-7.52,0-.14.02,7.59-7.74,7.59,0-.07,7.73.07,7.73,9.15Z"/>
  <path class="cls-1" d="M43.75,103.09s.01-3.21,2.46-3.21c.05,0-2.45.08-2.45-2.62,0-.05,0,2.64-2.7,2.64,0-.02,2.69.02,2.69,3.19Z"/>
  <path class="cls-1" d="M167.12,44.13s.02-4.55,3.48-4.55c.07,0-3.47.12-3.47-3.71,0-.07.01,3.74-3.82,3.74,0-.03,3.81.03,3.81,4.51Z"/>
  <path class="cls-1" d="M117.49,38.15s.01-3.77,2.88-3.77c.06,0-2.88.1-2.88-3.08,0-.06.01,3.11-3.16,3.11,0-.03,3.16.03,3.16,3.74Z"/>
  <path class="cls-1" d="M32.1,58.48s.02-6.34,4.85-6.34c.09,0-4.84.16-4.84-5.17,0-.09.02,5.22-5.32,5.22,0-.05,5.31.05,5.31,6.29Z"/>
</svg>