<?xml version="1.0" encoding="UTF-8"?>
<svg id="Cloud" xmlns="http://www.w3.org/2000/svg" viewBox="0 0 200 200">
  <defs>
    <style>
      .cls-1 {
        fill: #b2b1d9;
      }

      .cls-2 {
        stroke: #b2b1d8;
      }

      .cls-2, .cls-3 {
        fill: none;
        stroke-miterlimit: 10;
        stroke-width: 20.49px;
      }

      .cls-3 {
        stroke: #dad0e7;
      }

      .cls-4 {
        fill: #b1c4e6;
      }
    </style>
  </defs>
  <g>
    <path class="cls-2" d="M10.29,129.95V37.67c0-15.2,12.41-27.53,27.72-27.53h123.82c15.31,0,27.72,12.32,27.72,27.53v92.28"/>
    <path class="cls-3" d="M10.29,70.05v92.28c0,15.2,12.41,27.53,27.72,27.53h123.82c15.31,0,27.72-12.32,27.72-27.53v-92.28"/>
    <polygon class="cls-1" points=".04 70.03 20.53 121.73 20.53 63.14 .04 70.03"/>
    <polygon class="cls-1" points="199.78 70.04 179.31 121.76 179.31 61.18 199.78 70.04"/>
  </g>
  <path class="cls-4" d="M20.8,124.41c4.51,4.51,52.96,8.38,148.88,2.7,20.06-1.65,24.18-18.36,14.59-32.96-5.76-9.12-18.1-11.89-18.1-11.89,0,0-1.35-30.53-40.53-25.4-4.59-27.02-50.53-33.77-58.9.81-22.97,1.42-28.37,15.02-27.83,23.93-15.24,1-43.5,27.28-18.1,42.81Z"/>
</svg>