<?xml version="1.0" encoding="UTF-8"?>
<svg id="Cloud" xmlns="http://www.w3.org/2000/svg" viewBox="0 0 200 200">
  <defs>
    <style>
      .cls-1 {
        fill: #d2e8f4;
      }

      .cls-2 {
        stroke: #dfe2f2;
      }

      .cls-2, .cls-3 {
        fill: none;
        stroke-miterlimit: 10;
        stroke-width: 20.44px;
      }

      .cls-4 {
        fill: #dfe2f2;
      }

      .cls-3 {
        stroke: #b7ceeb;
      }
    </style>
  </defs>
  <g>
    <path class="cls-2" d="M10.78,130.08V38.01c0-15.17,12.38-27.46,27.65-27.46h123.53c15.27,0,27.65,12.3,27.65,27.46v92.07"/>
    <path class="cls-3" d="M10.78,70.32v92.07c0,15.17,12.38,27.46,27.65,27.46h123.53c15.27,0,27.65-12.3,27.65-27.46v-92.07"/>
    <polygon class="cls-4" points=".56 70.3 21 121.88 21 58.71 .56 70.3"/>
    <polygon class="cls-4" points="199.84 70.31 179.41 121.9 179.41 58.71 199.84 70.31"/>
  </g>
  <path class="cls-1" d="M21.27,125.72c4.5,4.5,52.84,8.36,148.53,2.7,20.02-1.64,24.12-18.32,14.56-32.89-5.75-9.1-18.06-11.86-18.06-11.86,0,0-1.35-30.46-40.44-25.34-4.58-26.96-50.41-33.7-58.77.81-22.91,1.42-28.31,14.98-27.77,23.87-15.21,1-43.4,27.21-18.06,42.71Z"/>
</svg>