<?xml version="1.0" encoding="UTF-8"?>
<svg id="Cloud" xmlns="http://www.w3.org/2000/svg" viewBox="0 0 200 200">
  <defs>
    <style>
      .cls-1 {
        stroke: #c8e9eb;
      }

      .cls-1, .cls-2 {
        fill: none;
        stroke-miterlimit: 10;
        stroke-width: 20.47px;
      }

      .cls-2 {
        stroke: #b0cdec;
      }

      .cls-3 {
        fill: #b0cdec;
      }

      .cls-4 {
        fill: #a6a9d5;
      }
    </style>
  </defs>
  <g>
    <path class="cls-2" d="M10.66,129.92V37.73c0-15.19,12.4-27.5,27.69-27.5h123.7c15.29,0,27.69,12.31,27.69,27.5v92.19"/>
    <path class="cls-1" d="M10.66,70.08v92.19c0,15.19,12.4,27.5,27.69,27.5h123.7c15.29,0,27.69-12.31,27.69-27.5v-92.19"/>
    <polygon class="cls-3" points=".42 70.06 20.89 121.71 20.89 63.17 .42 70.06"/>
    <polygon class="cls-3" points="199.98 70.07 179.52 121.74 179.52 61.22 199.98 70.07"/>
  </g>
  <path class="cls-4" d="M21.16,124.27c4.51,4.51,52.91,8.37,148.74,2.7,20.05-1.64,24.15-18.35,14.58-32.93-5.76-9.11-18.09-11.88-18.09-11.88,0,0-1.35-30.5-40.49-25.37-4.59-26.99-50.48-33.74-58.85.81-22.95,1.42-28.34,15-27.8,23.9-15.23,1-43.46,27.25-18.09,42.77Z"/>
</svg>