<?xml version="1.0" encoding="UTF-8"?>
<svg id="Box" xmlns="http://www.w3.org/2000/svg" viewBox="0 0 200 200">
  <defs>
    <style>
      .cls-1 {
        stroke: #b5bfe2;
      }

      .cls-1, .cls-2, .cls-3 {
        fill: none;
        stroke-miterlimit: 10;
      }

      .cls-1, .cls-3 {
        stroke-width: 20.48px;
      }

      .cls-2 {
        stroke: #98d8e1;
        stroke-width: 3.99px;
      }

      .cls-4 {
        fill: #93a8d7;
      }

      .cls-3 {
        stroke: #93a8d6;
      }
    </style>
  </defs>
  <path class="cls-2" d="M7.81,138.31s8.33.38,13.93-7.41c1.21,1.74,14.49,17.39,30.11,0,0,0,14.11,17.69,30.11,0,1.46,1.59,14.11,16.48,30.49,0,0,0,15.62,17.54,30.3,0,0,0,13.93,17.39,30.3,0,2.72,2.61,4.13,6.66,14.68,7.86"/>
  <path class="cls-2" d="M7.81,153.6s8.33.38,13.93-7.41c1.21,1.74,14.49,17.39,30.11,0,0,0,14.11,17.69,30.11,0,1.46,1.59,14.11,16.48,30.49,0,0,0,15.62,17.54,30.3,0,0,0,13.93,17.39,30.3,0,2.72,2.61,4.13,6.66,14.68,7.86"/>
  <g>
    <path class="cls-3" d="M10.53,130.11V37.84c0-15.2,12.41-27.52,27.71-27.52h123.8c15.31,0,27.71,12.32,27.71,27.52v92.27"/>
    <path class="cls-1" d="M10.53,70.21v92.27c0,15.2,12.41,27.52,27.71,27.52h123.8c15.31,0,27.71-12.32,27.71-27.52v-92.27"/>
    <polygon class="cls-4" points=".29 70.2 20.78 121.89 20.78 63.3 .29 70.2"/>
    <polygon class="cls-4" points="200 70.21 179.53 121.91 179.53 61.35 200 70.21"/>
  </g>
</svg>