<?xml version="1.0" encoding="UTF-8"?>
<svg id="Box" xmlns="http://www.w3.org/2000/svg" viewBox="0 0 200 200">
  <defs>
    <style>
      .cls-1 {
        fill: #f9d5bc;
      }

      .cls-2 {
        stroke: #f8be67;
      }

      .cls-2, .cls-3 {
        fill: none;
        stroke-miterlimit: 10;
        stroke-width: 20.51px;
      }

      .cls-4 {
        fill: #f9a56a;
      }

      .cls-5 {
        fill: #fad069;
      }

      .cls-3 {
        stroke: #fad069;
      }
    </style>
  </defs>
  <g>
    <path class="cls-1" d="M19.31,183.32s61.99-50.88,64.69-81.19h37.95c2.48,29.65,58.75,81.19,59.08,81.19s-161.72,0-161.72,0Z"/>
    <path class="cls-4" d="M79.27,116.78s3.36,9.15,6.99,8.49,7.56-4.08,8.66-5.28c0,0,2.72,14.19,7.59,14.19s7.92-14.36,7.92-14.36c0,0,17.18,11.97,16.18-2.52.05.09-4.85-10-4.66-15.17h-37.95s-1.25,9.37-4.73,14.64Z"/>
  </g>
  <g>
    <path class="cls-3" d="M10.46,130.25V37.88c0-15.22,12.42-27.55,27.75-27.55h123.94c15.32,0,27.75,12.34,27.75,27.55v92.37"/>
    <path class="cls-2" d="M10.46,70.29v92.37c0,15.22,12.42,27.55,27.75,27.55h123.94c15.32,0,27.75-12.34,27.75-27.55v-92.37"/>
    <polygon class="cls-5" points=".2 70.27 20.71 122.02 20.71 63.37 .2 70.27"/>
    <polygon class="cls-5" points="200.14 70.28 179.64 122.05 179.64 61.41 200.14 70.28"/>
  </g>
</svg>