<?xml version="1.0" encoding="UTF-8"?>
<svg id="Box" xmlns="http://www.w3.org/2000/svg" viewBox="0 0 200 200">
  <defs>
    <style>
      .cls-1 {
        fill: #f9d5bc;
      }

      .cls-2 {
        fill: #695d56;
      }

      .cls-3 {
        stroke: #f8be67;
      }

      .cls-3, .cls-4 {
        fill: none;
        stroke-miterlimit: 10;
        stroke-width: 20.5px;
      }

      .cls-5 {
        fill: #f9a56a;
      }

      .cls-6 {
        fill: #fad069;
      }

      .cls-4 {
        stroke: #fad069;
      }
    </style>
  </defs>
  <g>
    <path class="cls-1" d="M19.6,182.39s64.92-65.71,64.66-101.49h37.94c.88,40.97,58.72,101.49,59.05,101.49s-161.65,0-161.65,0Z"/>
    <path class="cls-5" d="M81.27,96.39s1.62,7.51,5.25,6.87,7.55-3.95,8.66-5.1c0,0,2.72,13.71,7.59,13.71s7.92-13.87,7.92-13.87c0,0,15.44,13.24,14.44-.76.05.09-3.18-9.33-2.92-16.33h-37.94s-.06,8.65-2.99,15.48Z"/>
  </g>
  <path class="cls-2" d="M127.45,53.88c6.49-.65,17.26,4.64,24.82-7.99,7.4-12.35,37.85-1.46,34.41-32.46-2.05-2.61-173.26,2.2-173.26,2.2,0,0,3.62,24.38,22.45,25.87,18.83,1.49,15.37-5.37,24.89,5.61,6.56,7.57,8.99,8.86,17.57,8.3,8.58-.56,8.19,13.1,13.24,17,5.03,4.1,18.06,5.98,24.04-1.1,3.17-5.03,3.27-16.57,11.84-17.43Z"/>
  <circle class="cls-2" cx="67.37" cy="87.76" r="2"/>
  <circle class="cls-2" cx="155.47" cy="87.76" r="1.9"/>
  <circle class="cls-2" cx="46.41" cy="115.1" r="1.71"/>
  <g>
    <path class="cls-4" d="M10.75,129.59V37.25c0-15.21,12.42-27.54,27.73-27.54h123.89c15.32,0,27.73,12.33,27.73,27.54v92.33"/>
    <path class="cls-3" d="M10.75,69.65v92.33c0,15.21,12.42,27.54,27.73,27.54h123.89c15.32,0,27.73-12.33,27.73-27.54v-92.33"/>
    <polygon class="cls-6" points=".5 69.64 21 121.36 21 62.73 .5 69.64"/>
    <polygon class="cls-6" points="200.36 69.65 179.87 121.39 179.87 60.78 200.36 69.65"/>
  </g>
</svg>