<?xml version="1.0" encoding="UTF-8"?>
<svg id="Cloud" xmlns="http://www.w3.org/2000/svg" viewBox="0 0 200 200">
  <defs>
    <style>
      .cls-1 {
        stroke: #bacce8;
      }

      .cls-1, .cls-2 {
        fill: none;
        stroke-miterlimit: 10;
        stroke-width: 20.52px;
      }

      .cls-2 {
        stroke: #c5e8ef;
      }

      .cls-3 {
        fill: #bacce8;
      }

      .cls-4 {
        fill: #c2e0f6;
      }
    </style>
  </defs>
  <g>
    <path class="cls-1" d="M10.3,130V37.57c0-15.23,12.43-27.57,27.77-27.57h124.03c15.33,0,27.77,12.34,27.77,27.57v92.44"/>
    <path class="cls-2" d="M10.3,70v92.44c0,15.23,12.43,27.57,27.77,27.57h124.03c15.33,0,27.77-12.34,27.77-27.57v-92.44"/>
    <polygon class="cls-3" points=".04 69.98 20.57 121.77 20.57 63.07 .04 69.98"/>
    <polygon class="cls-3" points="200.12 69.99 179.61 121.79 179.61 61.12 200.12 69.99"/>
  </g>
  <path class="cls-4" d="M20.84,124.17c4.52,4.52,53.05,8.39,149.13,2.71,20.1-1.65,24.22-18.39,14.62-33.02-5.77-9.13-18.13-11.91-18.13-11.91,0,0-1.35-30.58-40.6-25.44-4.6-27.07-50.61-33.83-59,.81-23.01,1.42-28.42,15.04-27.88,23.97-15.27,1-43.58,27.32-18.13,42.89Z"/>
</svg>